<?xml version="1.0" standalone="no"?>
<!DOCTYPE svg PUBLIC "-//W3C//DTD SVG 20010904//EN"
 "http://www.w3.org/TR/2001/REC-SVG-20010904/DTD/svg10.dtd">
<svg version="1.0" xmlns="http://www.w3.org/2000/svg"
 width="980.000000pt" height="980.000000pt" viewBox="0 0 980.000000 980.000000"
 preserveAspectRatio="xMidYMid meet">

<g transform="translate(0.000000,980.000000) scale(0.100000,-0.100000)"
fill="#000000" stroke="none">
<path d="M4560 9789 c-985 -72 -1932 -438 -2693 -1042 -334 -265 -667 -609
-913 -943 -816 -1107 -1129 -2515 -858 -3864 159 -795 502 -1517 1022 -2155
132 -161 488 -520 642 -647 324 -266 630 -465 995 -643 1582 -773 3478 -630
4925 371 437 302 845 697 1162 1124 996 1341 1233 3126 623 4690 -255 655
-630 1220 -1146 1725 -385 377 -778 656 -1254 890 -537 264 -1061 415 -1665
480 -174 19 -664 27 -840 14z m830 -503 c909 -110 1701 -455 2380 -1036 437
-374 821 -864 1076 -1371 184 -368 330 -810 398 -1209 52 -298 61 -412 61
-770 0 -358 -9 -473 -60 -769 -84 -483 -268 -994 -510 -1417 -188 -327 -409
-617 -684 -898 -511 -520 -1078 -876 -1756 -1101 -303 -101 -570 -160 -915
-202 -206 -25 -754 -25 -960 0 -551 67 -991 196 -1465 427 -609 299 -1155 749
-1574 1299 -419 550 -709 1215 -825 1891 -52 298 -61 412 -61 770 0 358 9 472
61 770 131 767 476 1494 993 2100 118 137 390 406 518 512 739 611 1568 945
2538 1022 123 9 656 -3 785 -18z"/>
<path d="M4650 7339 c-893 -97 -1668 -672 -2009 -1492 -81 -196 -143 -425
-173 -637 -19 -140 -16 -506 5 -651 80 -537 317 -1010 697 -1389 381 -381 844
-612 1390 -697 159 -24 518 -24 680 0 554 85 1003 309 1390 697 213 213 342
393 470 655 116 237 186 460 226 715 26 163 26 557 1 720 -127 802 -626 1485
-1342 1835 -246 121 -471 192 -725 230 -134 20 -482 28 -610 14z"/>
</g>
</svg>
